<svg width="15" height="14" viewBox="0 0 15 14" fill="none" xmlns="http://www.w3.org/2000/svg">
<path d="M5.83624 0C4.97113 0 4.25957 0.675507 4.25957 1.49797V1.99794H10.5683V1.49797C10.5683 0.675509 9.85776 0 8.99265 0H5.83624ZM2.15597 2.49792C1.29086 2.49792 0.575195 3.17831 0.575195 4.00077C0.575195 4.82323 1.29086 5.49874 2.15597 5.49874V12.4964C2.15597 13.3189 2.86651 13.9993 3.73161 13.9993H11.0962C11.9614 13.9993 12.6719 13.3189 12.6719 12.4964V5.49874C13.537 5.49874 14.2527 4.82323 14.2527 4.00077C14.2527 3.17831 13.537 2.49792 12.6719 2.49792H11.0973V2.49987H3.73264V2.49792H2.15597ZM5.30417 6.98987C5.37462 6.98908 5.44452 7.00175 5.50972 7.02714C5.57492 7.05253 5.63409 7.09011 5.68372 7.13765C5.73334 7.1852 5.77242 7.24174 5.79862 7.30391C5.82482 7.36609 5.83761 7.43264 5.83624 7.49961V11.5004C5.83624 11.6331 5.78077 11.7604 5.68205 11.8543C5.58333 11.9481 5.44944 12.0008 5.30982 12.0008C5.17021 12.0008 5.03632 11.9481 4.93759 11.8543C4.83887 11.7604 4.78341 11.6331 4.78341 11.5004V7.49961C4.78206 7.43355 4.79449 7.36788 4.81999 7.30641C4.84549 7.24495 4.88355 7.18889 4.93198 7.14149C4.9804 7.09409 5.03823 7.05629 5.10211 7.03026C5.166 7.00424 5.23468 6.99051 5.30417 6.98987V6.98987ZM7.40469 6.98987C7.47539 6.98868 7.54563 7.00106 7.61119 7.02627C7.67674 7.05148 7.73628 7.089 7.78624 7.13659C7.8362 7.18417 7.87555 7.24085 7.90194 7.30322C7.92833 7.3656 7.94122 7.43239 7.93983 7.49961V11.5004C7.94139 11.567 7.92893 11.6332 7.9032 11.6951C7.87747 11.7571 7.83898 11.8135 7.78999 11.8612C7.74101 11.9088 7.68251 11.9466 7.61793 11.9724C7.55335 11.9983 7.48399 12.0116 7.41393 12.0116C7.34387 12.0116 7.27452 11.9983 7.20994 11.9724C7.14536 11.9466 7.08686 11.9088 7.03787 11.8612C6.98888 11.8135 6.95039 11.7571 6.92466 11.6951C6.89893 11.6332 6.88648 11.567 6.88803 11.5004V7.49961C6.88668 7.43387 6.89898 7.36852 6.92422 7.30731C6.94947 7.24609 6.98716 7.19021 7.03515 7.14286C7.08314 7.09551 7.14048 7.05763 7.20389 7.03138C7.2673 7.00513 7.33554 6.99102 7.40469 6.98987V6.98987ZM9.50828 6.98987C9.57907 6.98855 9.64942 7.00083 9.7151 7.02598C9.78078 7.05113 9.84044 7.08863 9.89051 7.13623C9.94057 7.18383 9.98002 7.24055 10.0065 7.30299C10.0329 7.36543 10.0458 7.43231 10.0445 7.49961V11.5004C10.046 11.567 10.0336 11.6332 10.0078 11.6951C9.98209 11.7571 9.9436 11.8135 9.89462 11.8612C9.84563 11.9088 9.78713 11.9466 9.72255 11.9724C9.65797 11.9983 9.58861 12.0116 9.51855 12.0116C9.44849 12.0116 9.37914 11.9983 9.31456 11.9724C9.24998 11.9466 9.19148 11.9088 9.14249 11.8612C9.0935 11.8135 9.05501 11.7571 9.02928 11.6951C9.00355 11.6332 8.9911 11.567 8.99265 11.5004V7.49961C8.9913 7.43395 9.00356 7.36868 9.02874 7.30753C9.05392 7.24638 9.09153 7.19054 9.13941 7.1432C9.18729 7.09587 9.24451 7.05796 9.3078 7.03165C9.3711 7.00535 9.43922 6.99115 9.50828 6.98987Z" fill="white"/>
</svg>
