<svg width="17" height="16" viewBox="0 0 17 16" fill="none" xmlns="http://www.w3.org/2000/svg">
<path d="M15.7775 12.25H14.4627V3C14.4627 2.58499 14.1103 2.25 13.6738 2.25H3.94418V1C3.94418 0.58499 3.59182 0.25 3.15529 0.25C2.71876 0.25 2.3664 0.58499 2.3664 1V2.25H1.05158C0.615055 2.25 0.262695 2.58499 0.262695 3C0.262695 3.41498 0.615055 3.75 1.05158 3.75H2.3664V13C2.3664 13.415 2.71876 13.75 3.15529 13.75H12.8849V15C12.8849 15.415 13.2373 15.75 13.6738 15.75C14.1103 15.75 14.4627 15.415 14.4627 15V13.75H15.7775C16.214 13.75 16.5664 13.415 16.5664 13C16.5664 12.585 16.214 12.25 15.7775 12.25ZM12.8849 12.25H3.94418V3.75H12.8849V12.25Z" fill="white"/>
</svg>
